HIERARCHY
ROOT SpineBase
{
  OFFSET 0.000000 0.000000 0.000000
  CHANNELS 6 Xposition Yposition Zposition Zrotation Xrotation Yrotation
  JOINT SpineMid
  {
    OFFSET 0.000000 30.911727 0.000000
    CHANNELS 3 Zrotation Xrotation Yrotation
    JOINT SpineShoulder
    {
      OFFSET 0.136933 23.046168 -0.774077
      CHANNELS 3 Zrotation Xrotation Yrotation
      JOINT Neck
      {
        OFFSET 0.140722 7.664855 -0.543013
        CHANNELS 3 Zrotation Xrotation Yrotation
        JOINT Head
        {
          OFFSET 3.367371 9.040043 5.261936
          CHANNELS 3 Zrotation Xrotation Yrotation
          End Site
          {
            OFFSET 0 0 0
          }
        }
      }
      JOINT ShoulderLeft
      {
        OFFSET -1.576561 -3.561634 -9.743237
        CHANNELS 3 Zrotation Xrotation Yrotation
        JOINT ElbowLeft
        {
          OFFSET 10.128966 -20.108015 -9.053153
          CHANNELS 3 Zrotation Xrotation Yrotation
          JOINT WristLeft
          {
            OFFSET 6.542810 -22.988698 5.920905
            CHANNELS 3 Zrotation Xrotation Yrotation
            JOINT HandLeft
            {
              OFFSET 2.066460 -9.011517 4.566293
              CHANNELS 3 Zrotation Xrotation Yrotation
              JOINT HandTipLeft
              {
                OFFSET 1.722041 -6.094983 1.118525
                CHANNELS 3 Zrotation Xrotation Yrotation
                End Site
                {
                  OFFSET 0 0 0
                }
              }
              JOINT ThumbLeft
              {
                OFFSET -0.503279 -4.572300 -2.068755
                CHANNELS 3 Zrotation Xrotation Yrotation
                End Site
                {
                  OFFSET 0 0 0
                }
              }
            }
          }
        }
      }
      JOINT ShoulderRight
      {
        OFFSET 9.664243 -7.160032 -14.476835
        CHANNELS 3 Zrotation Xrotation Yrotation
        JOINT ElbowRight
        {
          OFFSET -0.123006 -26.017135 -2.202054
          CHANNELS 3 Zrotation Xrotation Yrotation
          JOINT WristRight
          {
            OFFSET 1.502718 -20.636605 5.422808
            CHANNELS 3 Zrotation Xrotation Yrotation
            JOINT HandRight
            {
              OFFSET -0.005355 -0.246787 2.705413
              CHANNELS 3 Zrotation Xrotation Yrotation
              JOINT HandTipRight
              {
                OFFSET -0.562946 -8.135087 0.810298
                CHANNELS 3 Zrotation Xrotation Yrotation
                End Site
                {
                  OFFSET 0 0 0
                }
              }
              JOINT ThumbRight
              {
                OFFSET 5.578787 -0.141170 -2.492570
                CHANNELS 3 Zrotation Xrotation Yrotation
                End Site
                {
                  OFFSET 0 0 0
                }
              }
            }
          }
        }
      }
    }
  }
  JOINT HipLeft
  {
    OFFSET -5.244898 0.069501 -4.682025
    CHANNELS 3 Zrotation Xrotation Yrotation
    JOINT KneeLeft
    {
      OFFSET -10.127387 -32.938081 14.453416
      CHANNELS 3 Zrotation Xrotation Yrotation
      JOINT AnkleLeft
      {
        OFFSET -0.896269 -26.143593 5.022868
        CHANNELS 3 Zrotation Xrotation Yrotation
        JOINT FootLeft
        {
          OFFSET -3.348869 -3.324618 -12.326245
          CHANNELS 3 Zrotation Xrotation Yrotation
          End Site
          {
            OFFSET 0 0 0
          }
        }
      }
    }
  }
  JOINT HipRight
  {
    OFFSET 5.810781 2.660198 -2.178978
    CHANNELS 3 Zrotation Xrotation Yrotation
    JOINT KneeRight
    {
      OFFSET -2.113013 -29.955019 -4.702587
      CHANNELS 3 Zrotation Xrotation Yrotation
      JOINT AnkleRight
      {
        OFFSET -5.414631 -34.001353 2.625124
        CHANNELS 3 Zrotation Xrotation Yrotation
        JOINT FootRight
        {
          OFFSET -7.956412 -1.679755 8.933654
          CHANNELS 3 Zrotation Xrotation Yrotation
          End Site
          {
            OFFSET 0 0 0
          }
        }
      }
    }
  }
}
MOTION
Frames: 13
Frame Time: 0.033333
-15.772794 69.093891 298.176761 -0.000000 0.000000 -12.756912 -0.000000 0.000000 12.756912 -0.000000 0.000000 0.000000 -0.000000 0.000000 0.000000 0.000000 0.000000 0.000000 -0.000000 0.000000 0.000000 -0.000000 0.000000 0.000000 -0.000000 0.000000 0.000000 -0.000000 0.000000 0.000000 0.000000 0.000000 0.000000 0.000000 0.000000 0.000000 -0.000000 0.000000 0.000000 -0.000000 0.000000 0.000000 -0.000000 0.000000 0.000000 -0.000000 0.000000 0.000000 0.000000 0.000000 0.000000 0.000000 0.000000 0.000000 -0.000000 0.000000 12.756912 -0.000000 0.000000 0.000000 -0.000000 0.000000 0.000000 0.000000 0.000000 0.000000 -0.000000 0.000000 12.756912 -0.000000 0.000000 0.000000 -0.000000 0.000000 0.000000 0.000000 0.000000 0.000000
-15.642396 69.098386 298.246330 -0.011529 -0.066168 -10.668080 -0.000919 0.067159 10.668074 -0.000000 0.000000 0.000000 0.934842 -0.553062 -0.335590 0.000000 0.000000 0.000000 0.893577 -0.016277 -0.408811 -2.072129 0.908464 0.374552 -1.046027 1.653497 -0.476645 3.639948 -1.343228 1.233030 0.000000 0.000000 0.000000 0.000000 0.000000 0.000000 1.288886 -0.203380 -0.105866 -1.289267 0.200947 0.110415 0.027012 11.051521 -0.874538 8.177789 -9.755041 3.060602 0.000000 0.000000 0.000000 0.000000 0.000000 0.000000 -0.000919 0.067159 10.668074 -2.113511 0.810256 -0.419241 4.041329 -5.024742 -2.649950 0.000000 0.000000 0.000000 -0.000919 0.067159 10.668074 -0.000000 0.000000 0.000000 2.035229 2.901407 -3.803232 0.000000 0.000000 0.000000
-15.598944 69.103467 298.304919 -0.126459 -0.121507 -9.070706 0.105722 0.139924 9.070443 -0.000000 0.000000 0.000000 1.745993 -1.035614 -0.621608 0.000000 0.000000 0.000000 1.598671 -0.059062 -0.743673 -3.900387 1.839362 0.716937 -2.065708 3.232543 -0.913293 6.771194 -2.632279 2.499695 0.000000 0.000000 0.000000 0.000000 0.000000 0.000000 2.302055 -0.318326 -0.187030 -3.466119 0.636002 -0.072448 1.415904 26.120530 -1.997989 16.300471 -23.037711 10.272885 0.000000 0.000000 0.000000 0.000000 0.000000 0.000000 0.105722 0.139924 9.070443 -3.606809 1.422397 -0.698072 7.435301 -10.234134 -5.497446 0.000000 0.000000 0.000000 0.546753 -1.200787 9.137773 -0.992871 2.169266 -0.219388 5.182154 5.123557 -8.026767 0.000000 0.000000 0.000000
-15.642439 69.109133 298.352530 -0.344943 -0.165987 -7.962220 0.318627 0.212165 7.961130 -0.000000 0.000000 0.000000 2.432898 -1.444728 -0.860574 0.000000 0.000000 0.000000 2.119104 -0.125283 -1.006073 -5.502990 2.811088 1.029138 -2.985029 4.653633 -1.307818 9.402474 -3.781753 3.745893 0.000000 0.000000 0.000000 0.000000 0.000000 0.000000 3.061661 -0.348343 -0.248335 -4.704375 1.117335 -0.086371 2.814191 42.720439 -4.011701 26.031020 -36.639648 22.095163 0.000000 0.000000 0.000000 0.000000 0.000000 0.000000 0.318627 0.212165 7.961130 -4.609734 1.873655 -0.876475 10.121729 -15.279753 -8.299108 0.000000 0.000000 0.000000 1.074356 -1.589170 8.025298 -1.524264 2.946893 -0.251028 7.947696 7.565709 -12.703676 0.000000 0.000000 0.000000
-15.772881 69.115384 298.389161 -0.667089 -0.199580 -7.336379 0.636150 0.283115 7.333645 -0.670951 -0.516553 -0.041057 3.666368 -1.260054 -1.046841 0.000000 0.000000 0.000000 3.128603 0.305254 -1.184586 -6.895871 3.841219 1.314279 -3.736539 5.836472 -1.664766 11.515234 -4.720325 4.911723 0.000000 0.000000 0.000000 0.000000 0.000000 0.000000 4.254114 0.223000 -0.290241 -5.629748 1.707369 -0.085977 5.159719 56.452063 -6.867564 37.435567 -46.536694 36.498151 0.000000 0.000000 0.000000 0.000000 0.000000 0.000000 1.048662 -0.607397 7.751062 -5.482518 3.162081 -1.305924 12.020470 -19.633228 -10.761006 0.000000 0.000000 0.000000 1.798762 -1.841340 7.370242 -2.075630 3.519932 -0.236493 10.302313 9.412331 -17.099004 0.000000 0.000000 0.000000
-15.990269 69.122220 298.414813 -1.092937 -0.222256 -7.185742 0.206859 -0.011881 7.154571 -0.033634 -0.326870 -0.028824 4.356712 -1.444748 -1.191657 0.000000 0.000000 0.000000 3.539555 0.269110 -1.295817 -8.093058 4.947212 1.576479 -4.262695 6.709112 -1.993224 13.075664 -5.391120 5.938394 0.000000 0.000000 0.000000 0.000000 0.000000 0.000000 4.799386 0.430917 -0.312200 -6.248989 2.398502 -0.072059 8.405859 65.480737 -10.447142 47.872577 -52.306729 49.509533 0.000000 0.000000 0.000000 0.000000 0.000000 0.000000 1.863412 -0.605334 7.803817 -6.094144 3.507309 -1.530474 13.094781 -22.751328 -12.603149 0.000000 0.000000 0.000000 2.732329 -1.948353 7.163877 -2.646908 3.888339 -0.179156 11.682675 10.370084 -20.438265 0.000000 0.000000 0.000000
-16.354713 69.135133 298.432154 -1.721718 -0.240611 -7.903583 0.494383 0.016781 7.858527 -0.084904 -0.325896 -0.045717 5.139585 -1.660925 -1.298242 0.000000 0.000000 0.000000 4.129149 0.130190 -1.443660 -9.650682 6.534823 2.016921 -4.616685 7.317360 -2.430926 14.276719 -5.754610 7.047406 0.000000 0.000000 0.000000 0.000000 0.000000 0.000000 5.253870 0.562782 -0.299373 -6.739333 3.647551 -0.045161 17.085316 72.127047 -20.764736 55.985887 -58.166727 61.415995 0.000000 0.000000 0.000000 0.000000 0.000000 0.000000 3.195949 -0.115719 8.759842 -6.653432 3.573386 -1.769581 13.585897 -25.688121 -14.455481 0.000000 0.000000 0.000000 4.030407 -1.795740 7.783401 -3.150321 3.913746 -0.055102 12.320545 10.972268 -25.580243 0.000000 0.000000 0.000000
-16.805243 69.146122 298.435501 -2.449427 -0.244199 -9.065256 0.846887 0.052988 9.004150 -0.107107 -0.313851 -0.061917 5.786597 -1.718074 -1.388657 0.000000 0.000000 0.000000 4.314709 -0.017128 -1.407322 -10.757723 8.234286 2.359427 -4.049895 6.961930 -2.690801 15.678637 -5.851882 7.902754 0.000000 0.000000 0.000000 0.000000 0.000000 0.000000 5.156700 0.908671 -0.239702 -6.493249 4.705987 -0.032443 26.766199 74.525496 -32.114945 63.266266 -61.420163 71.266183 0.000000 0.000000 0.000000 0.000000 0.000000 0.000000 4.650526 0.071061 10.259941 -6.798695 3.561651 -2.020106 12.119379 -21.838301 -13.042166 0.000000 0.000000 0.000000 5.598562 -1.429911 8.798936 -3.856091 3.804190 0.107837 10.959543 10.188827 -27.404278 0.000000 0.000000 0.000000
-17.295582 69.146386 298.421346 -3.189338 -0.228325 -10.626492 1.187993 0.110322 10.548347 -0.051020 -0.303553 -0.073626 6.195008 -1.640140 -1.436321 0.000000 0.000000 0.000000 3.929765 -0.218595 -1.161961 -10.982734 9.758028 2.499249 -3.465032 6.538585 -2.849540 14.445075 -5.855928 7.767894 0.000000 0.000000 0.000000 0.000000 0.000000 0.000000 5.243607 1.417853 -0.209420 -6.343777 5.459749 0.010639 21.781607 74.514852 -25.232389 63.639627 -67.048872 70.061314 0.000000 0.000000 0.000000 0.000000 0.000000 0.000000 6.058239 0.308017 12.133286 -6.749057 3.520598 -2.229315 9.070646 -13.494479 -8.740682 0.000000 0.000000 0.000000 7.250662 -0.848340 10.172236 -4.684412 3.645163 0.280073 8.216922 8.336168 -25.649225 0.000000 0.000000 0.000000
-17.800092 69.129582 298.412407 -3.900747 -0.231429 -11.079664 1.504601 0.175132 10.984233 0.079129 -0.306947 -0.079858 6.314331 -1.603129 -1.346693 0.000000 0.000000 0.000000 3.394998 -0.374170 -0.874238 -10.796125 10.603048 2.398103 -3.114954 6.238983 -2.953219 12.943557 -5.823526 7.410239 0.000000 0.000000 0.000000 0.000000 0.000000 0.000000 5.017248 1.959235 -0.158880 -5.557796 5.796328 0.088616 17.138684 72.523564 -19.985761 56.050081 -71.481126 61.431376 0.000000 0.000000 0.000000 0.000000 0.000000 0.000000 7.353093 0.665053 12.813289 -6.661278 3.476372 -2.380621 7.950127 -12.530057 -7.874099 0.000000 0.000000 0.000000 8.888164 -0.343106 10.420543 -5.694850 3.464145 0.459428 4.065860 4.901569 -20.426165 0.000000 0.000000 0.000000
-18.196896 69.111846 298.363297 -4.401998 -0.169344 -11.428687 1.631618 0.164457 11.320135 0.240828 -0.304816 -0.083785 6.306923 -1.562797 -1.220184 0.000000 0.000000 0.000000 2.884021 -0.428658 -0.549151 -10.212220 10.735309 2.071971 -3.024859 6.363624 -2.900790 10.720884 -5.156790 6.931442 0.000000 0.000000 0.000000 0.000000 0.000000 0.000000 4.839608 2.525231 -0.115309 -4.739802 5.720074 0.169159 13.498576 70.119182 -16.056509 42.096472 -72.707441 46.652378 0.000000 0.000000 0.000000 0.000000 0.000000 0.000000 8.245154 0.899917 13.304805 -6.715204 3.650197 -2.494429 8.121324 -14.627818 -8.525828 0.000000 0.000000 0.000000 10.145945 0.052793 10.599627 -6.440022 3.132220 0.626514 0.012375 0.904090 -14.410500 0.000000 0.000000 0.000000
-18.373669 69.114440 298.284687 -4.564846 -0.056652 -11.467310 1.542151 0.086553 11.353972 0.363181 -0.306165 -0.086266 6.118365 -1.416016 -1.088695 0.000000 0.000000 0.000000 2.259009 -0.628709 -0.265925 -9.608062 11.331924 1.944981 -1.569894 4.205114 -2.842665 6.766711 -3.100263 5.702887 0.000000 0.000000 0.000000 0.000000 0.000000 0.000000 4.745348 2.768757 -0.082029 -3.953486 5.422664 0.266419 9.514460 68.154970 -11.338488 26.271971 -73.008573 29.571253 0.000000 0.000000 0.000000 0.000000 0.000000 0.000000 8.504225 0.540612 13.461463 -6.145891 3.964985 -2.484533 6.005316 -10.511372 -5.578788 0.000000 0.000000 0.000000 10.712411 -0.021101 10.594028 -6.784351 3.027181 0.719399 0.384245 0.337779 -8.338347 0.000000 0.000000 0.000000
-18.331566 69.136458 298.159103 -4.423029 0.125458 -11.293959 1.297424 -0.047777 11.184006 0.437134 -0.330061 -0.086977 5.950490 -1.534359 -0.932339 0.000000 0.000000 0.000000 1.786273 -0.732324 -0.036347 -9.094532 11.091259 1.588387 -0.398296 3.197877 -2.436076 4.470363 -1.733776 4.964789 0.000000 0.000000 0.000000 0.000000 0.000000 0.000000 4.402005 2.916556 -0.032782 -2.835830 4.576420 0.352936 6.361316 66.679713 -7.732768 28.494504 -69.896489 30.478289 0.000000 0.000000 0.000000 0.000000 0.000000 0.000000 8.315347 0.145384 13.318081 -5.902409 4.478235 -2.458120 3.478467 -3.467947 -3.106923 0.000000 0.000000 0.000000 10.679113 -0.455878 10.482478 -6.827202 2.997307 0.759937 -0.712824 -1.888816 -2.081303 0.000000 0.000000 0.000000
